# xmcd CD database file
#
# Track frame offsets:
#	150
#	13824
#	24192
#	39915
#	54090
#	66259
#	78806
#	97937
#	111964
#	119359
#	154526
#	165797
#	179637
#	190325
#	216936
#	227049
#	239289
#	248958
#	259925
#	269876
#	280586
#	304057
#	308340
#	319444
#	334026
#
# Disc length: 4769 seconds
#
# Revision: 3
# Processed by: cddbd v1.5.1PL0 Copyright (c) Steve Scherf et al.
# Submitted via: ACXtractor (MTCDDB.DLL V2003.07.15)
#
DISCID=4e129f19
DTITLE=Various Artist - 25 Blues Masters (Vol. 4)
DYEAR=2001
DGENRE=Blues
TTITLE0=I Got Mojo Working-Muddy Waters
TTITLE1=The Comeback-Memphis Slim
TTITLE2=Solitude-Billie Holiday
TTITLE3=Kiss Me Baby-Ray Charles
TTITLE4=Whiskey and Women-John Lee Hooker
TTITLE5=Evil Hearted Woman-Lightnin' Hopkins
TTITLE6=Say It For Me-Howlin' Wolf
TTITLE7=Spike Driver's Blues-Mississippi John Hurt
TTITLE8=Poor Howard Green Cord-Leadbelly
TTITLE9=Sunnyland Slim-Pinetop Perkins
TTITLE10=You're Something Else-Jimmy Reed
TTITLE11=Good Mornin Heartaches-Lightning Slim
TTITLE12=T'aint Nobody's Business If I Do-Billie Holiday
TTITLE13=Garbage Man-Muddy Waters
TTITLE14=44 Blues-Big Joe Williams
TTITLE15=Sassy Mae-Memphis Slim
TTITLE16=Big Road Blues-Canned Heat
TTITLE17=I Wonder Who's Kissing Her Now-Ray Charles
TTITLE18=Dusty Road-John Lee Hooker
TTITLE19=My Little Kewpie Doll-Lightnin' Hopkins
TTITLE20=I Didn't Mean To Hurt Your Feelings-Howlin' Wolf
TTITLE21=Chicken Blues-Mississippi John Hurt
TTITLE22=Little Rain-Jimmy Reed
TTITLE23=Things I Used To Do-Lightnin' Slim
TTITLE24=Screamin' and Cryin'-Muddy Waters
EXTD=ID3G:   0 YEAR: 2001
EXTT0=
EXTT1=
EXTT2=
EXTT3=
EXTT4=
EXTT5=
EXTT6=
EXTT7=
EXTT8=
EXTT9=
EXTT10=
EXTT11=
EXTT12=
EXTT13=
EXTT14=
EXTT15=
EXTT16=
EXTT17=
EXTT18=
EXTT19=
EXTT20=
EXTT21=
EXTT22=
EXTT23=
EXTT24=
PLAYORDER=
